<svg width="17" height="17" viewBox="0 0 17 17" fill="none" xmlns="http://www.w3.org/2000/svg">
<g id="Cambodia (KH)">
<g clip-path="url(#clip0_514_541)">
<path id="Vector" d="M0.5 0.86261H16.5V16.8626H0.5V0.86261Z" fill="#032EA1"/>
<path id="Vector_2" d="M0.5 4.86261H16.5V12.8626H0.5V4.86261Z" fill="#E00025"/>
<g id="Group">
<g id="Group_2">
<path id="Vector_3" d="M6.24751 8.40573H10.7995V10.1577H6.24751V8.40573Z" fill="white" stroke="black" stroke-width="0.16" stroke-linejoin="bevel"/>
<path id="Vector_4" d="M10.5675 9.36975H10.7075V10.0297H10.5675V9.36975ZM6.24751 9.04575H10.7995V9.24575H6.24751V9.04575ZM6.24751 8.76575H10.7995V8.94975H6.24751V8.76575Z" fill="white" stroke="black" stroke-width="0.16" stroke-linejoin="bevel"/>
<path id="Vector_5" d="M6.24751 8.49374H10.7995V8.66574H6.24751V8.49374Z" fill="white" stroke="black" stroke-width="0.144" stroke-linejoin="bevel"/>
<path id="Vector_6" d="M7.44751 9.36972H7.59151V10.0297H7.44751V9.36972ZM9.40751 9.36972H9.55151V10.0297H9.40751V9.36972ZM6.28751 9.36972H6.42751V10.0297H6.28751V9.36972ZM6.56751 9.36972H6.70751V10.0297H6.56751V9.36972ZM6.86751 9.36972H7.00751V10.0297H6.86751V9.36972ZM7.16751 9.36972H7.30751V10.0297H7.16751V9.36972ZM9.67951 9.36972H9.82351V10.0297H9.67951V9.36972ZM9.97951 9.36972H10.1235V10.0297H9.97951V9.36972ZM10.2795 9.36972H10.4235V10.0297H10.2795V9.36972Z" fill="white" stroke="black" stroke-width="0.16" stroke-linejoin="bevel"/>
<path id="Vector_7" d="M4.46751 10.2457C4.55115 10.2002 4.61414 10.1243 4.64351 10.0337H12.3675C12.3969 10.1243 12.4599 10.2002 12.5435 10.2457H4.46751Z" fill="white" stroke="black" stroke-width="0.16"/>
</g>
<path id="Vector_8" d="M8.4075 5.73773C8.4075 5.73773 8.4035 5.57373 8.4995 5.56973C8.5915 5.56973 8.5875 5.73773 8.5875 5.73773H8.4075ZM7.9075 7.91773V7.69773C7.9075 7.58573 7.7955 7.57773 7.7955 7.49773C7.7955 7.49773 7.7795 7.37773 7.8115 7.32173C7.8555 7.48173 7.9315 7.45373 7.9315 7.38573C7.9315 7.32973 7.8915 7.27373 7.7995 7.13373C7.7675 7.08973 7.7875 6.94973 7.8275 6.89773C7.8435 7.01773 7.8635 7.07773 7.9155 7.07773C7.9475 7.07773 7.9715 7.05773 7.9715 6.99773C7.9715 6.91773 7.9195 6.87773 7.8915 6.80573C7.87771 6.7699 7.87453 6.73086 7.88233 6.69327C7.89013 6.65567 7.90859 6.62112 7.9355 6.59373C7.9555 6.71373 7.9515 6.76173 8.0035 6.76173C8.1115 6.72573 8.0035 6.56973 7.9795 6.52973C7.9555 6.48573 8.0195 6.39373 8.0195 6.39373C8.0515 6.50173 8.0595 6.50973 8.0995 6.49773C8.1475 6.48573 8.1395 6.41773 8.0835 6.36173C8.0475 6.32173 8.0515 6.26973 8.0915 6.22973C8.1315 6.30573 8.1795 6.30173 8.1835 6.25373L8.1515 6.07773H8.8475L8.8115 6.24973C8.8035 6.29773 8.8675 6.30973 8.9075 6.22973C8.9475 6.26973 8.9515 6.32573 8.9155 6.36173C8.8595 6.41773 8.8515 6.48573 8.8995 6.49773C8.9395 6.50973 8.9475 6.49773 8.9795 6.39373C8.9795 6.39373 9.0395 6.45373 9.0195 6.52973C8.9955 6.56973 8.8875 6.72973 8.9955 6.76173C9.0475 6.76173 9.0435 6.71373 9.0635 6.59373C9.08973 6.62155 9.10744 6.6563 9.11453 6.69388C9.12162 6.73145 9.11779 6.77027 9.1035 6.80573C9.0795 6.87773 9.0235 6.91773 9.0235 6.99773C9.0235 7.05773 9.0515 7.07773 9.0835 7.07773C9.1355 7.07773 9.1555 7.02173 9.1715 6.89773C9.2115 6.94973 9.2315 7.08973 9.1995 7.13773C9.1075 7.27373 9.0635 7.32973 9.0635 7.38573C9.0635 7.45373 9.1435 7.48173 9.1835 7.32173C9.2195 7.37773 9.2035 7.49773 9.2035 7.49773C9.2035 7.57773 9.0955 7.58573 9.0915 7.69773V7.91773H7.9075ZM8.1955 6.07773L8.1795 5.95373H8.8155L8.7995 6.07773H8.1955ZM8.2355 5.94973L8.2275 5.84973H8.7675L8.7555 5.94973H8.2355ZM8.3275 5.84573L8.3155 5.74173H8.6755L8.6715 5.84573H8.3275ZM9.6475 10.2457C9.5675 10.2177 9.4475 10.1297 9.4475 10.0457V9.07373L9.5515 8.93773H7.4475L7.5475 9.07373V10.0457C7.5475 10.1297 7.4675 10.2177 7.3875 10.2457H9.6475Z" fill="white" stroke="black" stroke-width="0.16"/>
<path id="Vector_9" d="M7.81551 9.36972H7.95951V10.0297H7.81551V9.36972ZM9.03151 9.36972H9.17551V10.0297H9.03151V9.36972Z" fill="white" stroke="black" stroke-width="0.16" stroke-linejoin="bevel"/>
<path id="Vector_10" d="M7.4075 7.83374V8.93774H9.5675V7.83374C9.54255 7.84286 9.52011 7.85776 9.50203 7.87723C9.48395 7.8967 9.47075 7.92018 9.4635 7.94574V8.41774H7.5155V7.94574C7.5155 7.94574 7.4915 7.86574 7.4035 7.83374H7.4075Z" fill="white" stroke="black" stroke-width="0.16"/>
<path id="Vector_11" d="M9.2715 10.2457C9.1995 10.2177 9.0475 10.1297 9.0475 10.0457V8.95775C9.0635 8.89775 9.1435 8.86175 9.1955 8.82175H7.7675C7.8355 8.86175 7.9115 8.88975 7.9395 8.95775V10.0457C7.9395 10.1297 7.8195 10.2177 7.7475 10.2457H9.2715Z" fill="white" stroke="black" stroke-width="0.16"/>
<path id="Vector_12" d="M9.4635 8.83372V8.04972H9.2675V7.97372H7.7155V8.05372H7.5155V8.83372H9.4635ZM8.9675 10.2457C8.8955 10.2177 8.7955 10.1297 8.7955 10.0457V9.11772L8.8515 9.03372H8.1435L8.2035 9.11372V10.0457C8.2035 10.1297 8.0995 10.2177 8.0315 10.2457H8.9675Z" fill="white" stroke="black" stroke-width="0.16"/>
<path id="Vector_13" d="M8.31551 9.03372H8.67551V10.2457H8.31551V9.03372Z" fill="white" stroke="black" stroke-width="0.16"/>
<path id="Vector_14" d="M8.8635 8.76574C8.8635 8.68574 9.0955 8.68174 9.2155 8.61374H7.7755C7.8955 8.68174 8.1235 8.68574 8.1235 8.76574L8.1715 8.92174L8.7715 8.94574L8.8635 8.76574Z" fill="white" stroke="black" stroke-width="0.16" stroke-linejoin="bevel"/>
<path id="Vector_15" d="M9.14351 7.91772C9.14351 7.72172 9.15151 7.64972 9.21151 7.64972V8.26572C9.06351 8.32172 8.95951 8.50572 8.95951 8.50572H8.03151C8.03151 8.50572 7.92751 8.32172 7.77951 8.26572V7.64572C7.85151 7.64572 7.85151 7.72572 7.85151 7.91372L9.14351 7.91772ZM9.21151 7.83772C9.21151 7.61372 9.40751 7.58972 9.40751 7.58972V7.78972C9.33151 7.78572 9.29551 7.85372 9.29551 7.94972C9.29551 8.04972 9.35551 8.04972 9.35551 8.04972V8.61772H9.21151V7.83772Z" fill="white" stroke="black" stroke-width="0.16"/>
<path id="Vector_16" d="M7.7795 7.83772C7.7795 7.61372 7.5835 7.58972 7.5835 7.58972V7.78972C7.6595 7.78572 7.6955 7.85372 7.6955 7.94972C7.6955 8.04972 7.6355 8.04972 7.6355 8.04972V8.61772H7.7795V7.83772Z" fill="white" stroke="black" stroke-width="0.16"/>
<g id="Group_3">
<path id="Vector_17" d="M8.1595 6.28973H8.8475M8.0795 6.50573H8.9195M7.9995 6.76573H8.9955M7.9155 7.08174H9.0955M7.8875 7.44174H9.1035" stroke="black" stroke-width="0.128"/>
<path id="Vector_18" d="M7.5195 8.62573H9.4635M8.1355 8.62573H8.8555V8.88973H8.1355V8.62573Z" stroke="black" stroke-width="0.16"/>
</g>
<path id="Vector_19" d="M8.0475 8.03374C8.1675 8.17774 8.1515 8.42174 8.1515 8.56574H8.8475C8.8475 8.42174 8.8315 8.17774 8.9515 8.03374H8.0475ZM8.4355 6.39374L8.3395 6.34174V6.20174C8.3795 6.21374 8.4195 6.21774 8.4275 6.28174C8.4395 6.18974 8.4675 6.19774 8.5035 6.16174C8.5435 6.19774 8.5635 6.18974 8.5795 6.28174C8.5795 6.21774 8.6275 6.21374 8.6635 6.20174V6.34174L8.5715 6.38974L8.4355 6.39374Z" fill="white" stroke="black" stroke-width="0.16"/>
<path id="Vector_20" d="M8.4275 6.62174L8.2675 6.50974V6.38574C8.3275 6.39774 8.3875 6.40574 8.3955 6.47374C8.4115 6.37374 8.4475 6.32574 8.5035 6.28574C8.5555 6.32574 8.5915 6.37374 8.6115 6.47374C8.6155 6.40574 8.6795 6.39774 8.7315 6.38574V6.51374L8.5755 6.62174H8.4275Z" fill="white" stroke="black" stroke-width="0.16"/>
<path id="Vector_21" d="M8.41551 6.97772L8.23551 6.81772V6.62972C8.29951 6.64572 8.37151 6.65372 8.37951 6.75372C8.39951 6.61372 8.43951 6.53772 8.49951 6.48172C8.56351 6.53772 8.60351 6.61372 8.62751 6.75372C8.63551 6.65372 8.70751 6.64572 8.77151 6.62972V6.81772L8.58751 6.97772H8.41551ZM8.75151 7.18972L8.59151 7.41772H8.40351L8.23951 7.18972H8.75151ZM8.14351 7.56972C8.22351 7.61372 8.25551 7.70572 8.26351 7.87372H8.72751C8.73551 7.70572 8.76751 7.61372 8.84751 7.56972H8.14351Z" fill="white" stroke="black" stroke-width="0.16"/>
<path id="Vector_22" d="M8.8555 7.18572V6.96172C8.82106 6.96906 8.78905 6.98502 8.76246 7.00811C8.73588 7.0312 8.71559 7.06065 8.7035 7.09372C8.7035 7.01372 8.6035 6.84172 8.4955 6.75372C8.3875 6.84972 8.2835 7.00972 8.2875 7.08972C8.2675 7.02972 8.2155 6.98172 8.1355 6.96172V7.18972L8.8555 7.18572Z" fill="white" stroke="black" stroke-width="0.16" stroke-linejoin="bevel"/>
<path id="Vector_23" d="M8.8875 7.56973V7.34573C8.8035 7.36973 8.7475 7.41373 8.7235 7.47773C8.7235 7.39773 8.6155 7.22573 8.4955 7.13773C8.3755 7.23773 8.2635 7.39373 8.2675 7.47773C8.2475 7.41773 8.1875 7.36973 8.1035 7.34573V7.57373L8.8875 7.56973Z" fill="white" stroke="black" stroke-width="0.16" stroke-linejoin="bevel"/>
<path id="Vector_24" d="M8.98351 8.03774V7.77374C8.90021 7.79976 8.82826 7.85337 8.77951 7.92574C8.77951 7.78574 8.61951 7.56574 8.49551 7.49774C8.36751 7.56974 8.21151 7.79374 8.21151 7.92574C8.16151 7.85286 8.08813 7.79924 8.00351 7.77374V8.03774H8.98351Z" fill="white" stroke="black" stroke-width="0.16" stroke-linejoin="bevel"/>
<path id="Vector_25" d="M8.92751 8.62574V8.35374C8.83151 8.38974 8.80751 8.47774 8.77551 8.54174C8.78751 8.26574 8.62351 7.97374 8.49551 7.89774C8.36751 7.97374 8.19951 8.27374 8.21551 8.53774C8.18351 8.48174 8.15551 8.38974 8.06351 8.35374V8.62174L8.92751 8.62574Z" fill="white" stroke="black" stroke-width="0.16" stroke-linejoin="bevel"/>
<path id="Vector_26" d="M8.8635 9.03373V8.76173C8.7635 8.78573 8.7595 8.82173 8.7275 8.88173C8.7395 8.71773 8.6235 8.52973 8.4955 8.45773C8.3675 8.52973 8.2555 8.71773 8.2635 8.88173C8.2315 8.82173 8.2275 8.78573 8.1275 8.76173V9.03373H8.8635Z" fill="white" stroke="black" stroke-width="0.16"/>
<g id="a">
<path id="Vector_27" d="M4.6475 10.0337V9.21774C4.6195 9.11374 4.5275 9.01774 4.4635 9.00174V8.28174L4.6115 8.36174L4.7835 9.11774V10.0377L4.6475 10.0337Z" fill="white" stroke="black" stroke-width="0.16"/>
<path id="Vector_28" d="M4.6475 10.0377V9.21773C4.6195 9.11373 4.5275 9.01773 4.4635 9.00173V8.23373C4.5635 8.23373 4.6115 8.36173 4.6115 8.36173L4.7835 9.11773V10.0337L4.6475 10.0377Z" fill="white" stroke="black" stroke-width="0.16"/>
<path id="Vector_29" d="M4.53951 10.2457C4.60751 10.2177 4.7075 10.1297 4.7075 10.0457V9.02174L4.65951 8.94174H6.4075L6.3395 9.02174V10.0457C6.34244 10.0881 6.35658 10.129 6.38047 10.1641C6.40436 10.1993 6.43716 10.2274 6.4755 10.2457H4.53951Z" fill="white" stroke="black" stroke-width="0.16"/>
<path id="Vector_30" d="M6.1195 10.2457C6.0515 10.2177 5.9515 10.1297 5.9515 10.0457V9.07375L6.0955 8.93774H4.9115L5.0555 9.07375V10.0457C5.0555 10.1297 4.9555 10.2177 4.8875 10.2457H6.1195Z" fill="white" stroke="black" stroke-width="0.16"/>
<path id="Vector_31" d="M5.9555 10.2458C5.8875 10.2178 5.7835 10.1298 5.7835 10.0458V9.16575L5.8795 9.03375H5.1275L5.2235 9.16575V10.0458C5.2235 10.1298 5.1235 10.2178 5.0515 10.2458H5.9555Z" fill="white" stroke="black" stroke-width="0.16"/>
<path id="Vector_32" d="M5.3275 9.03375H5.6835V10.2498H5.3235L5.3275 9.03375Z" fill="white" stroke="black" stroke-width="0.16"/>
<g id="Vector_33">
<path d="M4.8355 9.36973H4.9795V10.0297H4.8355V9.36973ZM6.0675 9.36973H6.2075V10.0297H6.0635L6.0675 9.36973ZM4.7115 8.25773H4.8875V8.93773H4.7115V8.25773ZM4.7115 8.12973H4.8835V8.25773H4.7115V8.12973ZM6.1355 8.40573H6.3795V8.92573H6.1355V8.40573Z" fill="white"/>
<path d="M4.7115 8.25773H4.8875V8.93773H4.7115V8.25773ZM4.7115 8.25773H4.8835V8.12973H4.7115V8.25773ZM4.8355 9.36973H4.9795V10.0297H4.8355V9.36973ZM6.0675 9.36973H6.2075V10.0297H6.0635L6.0675 9.36973ZM6.1355 8.40573H6.3795V8.92573H6.1355V8.40573Z" stroke="black" stroke-width="0.16" stroke-linejoin="bevel"/>
</g>
<path id="Vector_34" d="M4.8835 8.92974V7.76974C4.9315 7.76974 4.9395 7.94174 5.0515 7.94174C5.1115 7.94174 5.1075 7.86974 5.0715 7.81374C5.0435 7.76174 5.0075 7.69374 5.0555 7.56174C5.0915 7.66174 5.1795 7.69374 5.1635 7.63374C5.1355 7.52574 5.0515 7.50574 5.1155 7.34174C5.1355 7.47774 5.2235 7.47374 5.2035 7.39374C5.1795 7.30174 5.1275 7.26174 5.1915 7.13374C5.2275 7.28174 5.2715 7.27374 5.2715 7.18174C5.2715 7.04574 5.2715 6.90174 5.4395 6.84974C5.4395 6.84974 5.4515 6.72974 5.5155 6.72974C5.5755 6.72974 5.5875 6.84974 5.5875 6.84974C5.7595 6.90174 5.7555 7.04974 5.7555 7.18174C5.7555 7.27374 5.7995 7.28174 5.8355 7.13374C5.8995 7.26174 5.8475 7.30174 5.8235 7.39374C5.8035 7.47374 5.8915 7.47774 5.9115 7.34174C5.9755 7.50574 5.8915 7.52574 5.8635 7.63374C5.8475 7.69374 5.9355 7.66174 5.9715 7.56174C6.0195 7.69374 5.9835 7.76174 5.9555 7.81374C5.9235 7.86974 5.9155 7.94174 5.9755 7.94174C6.0875 7.94174 6.0955 7.77374 6.1435 7.77374V8.92974H4.8835ZM4.6075 8.05374V8.93774H4.7075V8.05374C4.6715 8.03374 4.6395 8.03374 4.6075 8.05374Z" fill="white" stroke="black" stroke-width="0.16"/>
<path id="Vector_35" d="M4.6155 8.62575C4.7395 8.68975 4.8635 8.76575 4.8955 8.93775H4.6155V8.62575ZM6.3435 8.36175V8.93775H6.4235V8.36175C6.3995 8.34975 6.3635 8.34575 6.3435 8.36175Z" fill="white" stroke="black" stroke-width="0.16"/>
<path id="Vector_36" d="M6.4235 8.62574C6.2995 8.68574 6.1755 8.75774 6.1435 8.93374H6.4235V8.62574ZM5.5995 7.27774L5.6715 7.21774V7.13774C5.6475 7.13774 5.6315 7.14974 5.6115 7.17774C5.60374 7.15205 5.59088 7.12819 5.5737 7.10757C5.55652 7.08696 5.53537 7.07001 5.5115 7.05774C5.48729 7.06913 5.46561 7.08527 5.44774 7.1052C5.42988 7.12512 5.4162 7.14843 5.4075 7.17374C5.3875 7.14574 5.3755 7.14174 5.3475 7.13374V7.21374L5.4195 7.27774H5.5995Z" fill="white" stroke="black" stroke-width="0.16"/>
<path id="Vector_37" d="M5.6395 7.47374L5.6715 7.39774V7.29774C5.6475 7.29774 5.6315 7.30974 5.6115 7.33774C5.60374 7.31205 5.59088 7.28819 5.5737 7.26758C5.55652 7.24696 5.53537 7.23001 5.5115 7.21774C5.48729 7.22914 5.46561 7.24528 5.44774 7.2652C5.42988 7.28513 5.4162 7.30843 5.4075 7.33374C5.3875 7.30574 5.3755 7.30174 5.3475 7.29774V7.39774L5.3795 7.47374H5.6395Z" fill="white" stroke="black" stroke-width="0.16"/>
<path id="Vector_38" d="M5.6475 7.73774L5.7515 7.60574V7.47774C5.7115 7.47774 5.6915 7.49774 5.6635 7.54174C5.6355 7.44974 5.5835 7.43374 5.5115 7.38974C5.4355 7.42974 5.3835 7.44974 5.3595 7.53774C5.3275 7.49374 5.3075 7.48174 5.2675 7.47774V7.60574L5.3755 7.73774H5.6475Z" fill="white" stroke="black" stroke-width="0.16"/>
<path id="Vector_39" d="M5.6755 7.99773C5.6755 7.99773 5.8035 7.88973 5.8075 7.82973V7.68973C5.7595 7.69373 5.7155 7.70573 5.6795 7.76573C5.6475 7.64973 5.5995 7.61773 5.5115 7.56573C5.4195 7.61773 5.3715 7.64973 5.3435 7.76573C5.3035 7.70573 5.2635 7.69373 5.2115 7.68573V7.82973C5.2451 7.89318 5.28981 7.95008 5.3435 7.99773H5.6755Z" fill="white" stroke="black" stroke-width="0.16"/>
<path id="Vector_40" d="M5.7275 8.47773C5.7275 8.47773 5.9035 8.28973 5.9075 8.21373V7.99773C5.8435 8.00573 5.7795 8.04973 5.7315 8.14173C5.6915 7.96173 5.6275 7.83773 5.5115 7.74973C5.3915 7.83773 5.3275 7.96173 5.2875 8.14173C5.2395 8.04973 5.1795 8.00573 5.1155 7.99773V8.21373C5.1275 8.28973 5.2915 8.47773 5.2915 8.47773H5.7275Z" fill="white" stroke="black" stroke-width="0.16"/>
<path id="Vector_41" d="M5.7275 8.76174C5.7275 8.76174 5.8755 8.61374 5.9075 8.54974V8.33374C5.8435 8.34174 5.7795 8.38574 5.7315 8.47374C5.7208 8.40096 5.69586 8.331 5.65811 8.26786C5.62037 8.20471 5.57055 8.14963 5.5115 8.10574C5.3915 8.19374 5.3275 8.29374 5.2875 8.47374C5.2395 8.38574 5.1795 8.34174 5.1155 8.33374V8.54974C5.1555 8.61374 5.2915 8.76174 5.2915 8.76174H5.7275Z" fill="white" stroke="black" stroke-width="0.16"/>
<path id="Vector_42" d="M5.7875 8.92973C5.7475 8.74173 5.7075 8.60173 5.5035 8.46173C5.2955 8.60173 5.2595 8.74173 5.2155 8.92973H5.7875Z" fill="white" stroke="black" stroke-width="0.16"/>
<path id="Vector_43" d="M5.8955 9.03374V8.76174C5.7995 8.80174 5.7155 8.85374 5.6835 8.91374C5.6515 8.76174 5.5835 8.69774 5.4995 8.60574C5.4155 8.69774 5.3595 8.76574 5.3235 8.91374C5.2915 8.85374 5.2075 8.79774 5.1155 8.76174V9.03374H5.8955Z" fill="white" stroke="black" stroke-width="0.16"/>
</g>
<g id="a_2">
<path id="Vector_44" d="M12.3555 10.0337V9.21774C12.3835 9.11374 12.4755 9.01774 12.5395 9.00174V8.28174L12.3915 8.36174L12.2195 9.11774V10.0377L12.3555 10.0337Z" fill="white" stroke="black" stroke-width="0.16"/>
<path id="Vector_45" d="M12.3555 10.0377V9.21773C12.3835 9.11373 12.4755 9.01773 12.5395 9.00173V8.23373C12.4395 8.23373 12.3915 8.36173 12.3915 8.36173L12.2195 9.11773V10.0337L12.3555 10.0377Z" fill="white" stroke="black" stroke-width="0.16"/>
<path id="Vector_46" d="M12.4635 10.2457C12.3955 10.2177 12.2955 10.1297 12.2955 10.0457V9.02174L12.3435 8.94174H10.5955L10.6635 9.02174V10.0457C10.6606 10.0881 10.6464 10.129 10.6225 10.1641C10.5986 10.1993 10.5658 10.2274 10.5275 10.2457H12.4635Z" fill="white" stroke="black" stroke-width="0.16"/>
<path id="Vector_47" d="M10.8835 10.2457C10.9515 10.2177 11.0515 10.1297 11.0515 10.0457V9.07375L10.9075 8.93774H12.0915L11.9475 9.07375V10.0457C11.9475 10.1297 12.0475 10.2177 12.1155 10.2457H10.8835Z" fill="white" stroke="black" stroke-width="0.16"/>
<path id="Vector_48" d="M11.0475 10.2458C11.1155 10.2178 11.2195 10.1298 11.2195 10.0458V9.16575L11.1235 9.03375H11.8755L11.7795 9.16575V10.0458C11.7795 10.1298 11.8795 10.2178 11.9515 10.2458H11.0475Z" fill="white" stroke="black" stroke-width="0.16"/>
<path id="Vector_49" d="M11.6755 9.03375H11.3195V10.2498H11.6795L11.6755 9.03375Z" fill="white" stroke="black" stroke-width="0.16"/>
<g id="Vector_50">
<path d="M12.1675 9.36973H12.0235V10.0297H12.1675V9.36973ZM10.9355 9.36973H10.7955V10.0297H10.9395L10.9355 9.36973ZM12.2915 8.25773H12.1155V8.93773H12.2915V8.25773ZM12.2915 8.12973H12.1195V8.25773H12.2915V8.12973ZM10.8675 8.40573H10.6235V8.92573H10.8675V8.40573Z" fill="white"/>
<path d="M12.2915 8.25773H12.1155V8.93773H12.2915V8.25773ZM12.2915 8.25773H12.1195V8.12973H12.2915V8.25773ZM12.1675 9.36973H12.0235V10.0297H12.1675V9.36973ZM10.9355 9.36973H10.7955V10.0297H10.9395L10.9355 9.36973ZM10.8675 8.40573H10.6235V8.92573H10.8675V8.40573Z" stroke="black" stroke-width="0.16" stroke-linejoin="bevel"/>
</g>
<path id="Vector_51" d="M12.1195 8.92974V7.76974C12.0715 7.76974 12.0635 7.94174 11.9515 7.94174C11.8915 7.94174 11.8955 7.86974 11.9315 7.81374C11.9595 7.76174 11.9955 7.69374 11.9475 7.56174C11.9115 7.66174 11.8235 7.69374 11.8395 7.63374C11.8675 7.52574 11.9515 7.50574 11.8875 7.34174C11.8675 7.47774 11.7795 7.47374 11.7995 7.39374C11.8235 7.30174 11.8755 7.26174 11.8115 7.13374C11.7755 7.28174 11.7315 7.27374 11.7315 7.18174C11.7315 7.04574 11.7315 6.90174 11.5635 6.84974C11.5635 6.84974 11.5515 6.72974 11.4875 6.72974C11.4275 6.72974 11.4155 6.84974 11.4155 6.84974C11.2435 6.90174 11.2475 7.04974 11.2475 7.18174C11.2475 7.27374 11.2035 7.28174 11.1675 7.13374C11.1035 7.26174 11.1555 7.30174 11.1795 7.39374C11.1995 7.47374 11.1115 7.47774 11.0915 7.34174C11.0275 7.50574 11.1115 7.52574 11.1395 7.63374C11.1555 7.69374 11.0675 7.66174 11.0315 7.56174C10.9835 7.69374 11.0195 7.76174 11.0475 7.81374C11.0795 7.86974 11.0875 7.94174 11.0275 7.94174C10.9155 7.94174 10.9075 7.77374 10.8595 7.77374V8.92974H12.1195ZM12.3955 8.05374V8.93774H12.2955V8.05374C12.3315 8.03374 12.3635 8.03374 12.3955 8.05374Z" fill="white" stroke="black" stroke-width="0.16"/>
<path id="Vector_52" d="M12.3875 8.62575C12.2635 8.68975 12.1395 8.76575 12.1075 8.93775H12.3875V8.62575ZM10.6595 8.36175V8.93775H10.5795V8.36175C10.6035 8.34975 10.6395 8.34575 10.6595 8.36175Z" fill="white" stroke="black" stroke-width="0.16"/>
<path id="Vector_53" d="M10.5795 8.62574C10.7035 8.68574 10.8275 8.75774 10.8595 8.93374H10.5795V8.62574ZM11.4035 7.27774L11.3315 7.21774V7.13774C11.3555 7.13774 11.3715 7.14974 11.3915 7.17774C11.3993 7.15205 11.4121 7.12819 11.4293 7.10757C11.4465 7.08696 11.4676 7.07001 11.4915 7.05774C11.5157 7.06913 11.5374 7.08527 11.5553 7.1052C11.5731 7.12512 11.5868 7.14843 11.5955 7.17374C11.6155 7.14574 11.6275 7.14174 11.6555 7.13374V7.21374L11.5835 7.27774H11.4035Z" fill="white" stroke="black" stroke-width="0.16"/>
<path id="Vector_54" d="M11.3635 7.47374L11.3315 7.39774V7.29774C11.3555 7.29774 11.3715 7.30974 11.3915 7.33774C11.3993 7.31205 11.4121 7.28819 11.4293 7.26758C11.4465 7.24696 11.4676 7.23001 11.4915 7.21774C11.5157 7.22914 11.5374 7.24528 11.5553 7.2652C11.5731 7.28513 11.5868 7.30843 11.5955 7.33374C11.6155 7.30574 11.6275 7.30174 11.6555 7.29774V7.39774L11.6235 7.47374H11.3635Z" fill="white" stroke="black" stroke-width="0.16"/>
<path id="Vector_55" d="M11.3555 7.73774L11.2515 7.60574V7.47774C11.2915 7.47774 11.3115 7.49774 11.3395 7.54174C11.3675 7.44974 11.4195 7.43374 11.4915 7.38974C11.5675 7.42974 11.6195 7.44974 11.6435 7.53774C11.6755 7.49374 11.6955 7.48174 11.7355 7.47774V7.60574L11.6275 7.73774H11.3555Z" fill="white" stroke="black" stroke-width="0.16"/>
<path id="Vector_56" d="M11.3275 7.99773C11.3275 7.99773 11.1995 7.88973 11.1955 7.82973V7.68973C11.2435 7.69373 11.2875 7.70573 11.3235 7.76573C11.3555 7.64973 11.4035 7.61773 11.4915 7.56573C11.5835 7.61773 11.6315 7.64973 11.6595 7.76573C11.6995 7.70573 11.7395 7.69373 11.7915 7.68573V7.82973C11.7579 7.89318 11.7132 7.95008 11.6595 7.99773H11.3275Z" fill="white" stroke="black" stroke-width="0.16"/>
<path id="Vector_57" d="M11.2755 8.47773C11.2755 8.47773 11.0995 8.28973 11.0955 8.21373V7.99773C11.1595 8.00573 11.2235 8.04973 11.2715 8.14173C11.3115 7.96173 11.3755 7.83773 11.4915 7.74973C11.6115 7.83773 11.6755 7.96173 11.7155 8.14173C11.7635 8.04973 11.8235 8.00573 11.8875 7.99773V8.21373C11.8755 8.28973 11.7115 8.47773 11.7115 8.47773H11.2755Z" fill="white" stroke="black" stroke-width="0.16"/>
<path id="Vector_58" d="M11.2755 8.76174C11.2755 8.76174 11.1275 8.61374 11.0955 8.54974V8.33374C11.1595 8.34174 11.2235 8.38574 11.2715 8.47374C11.2822 8.40096 11.3072 8.331 11.3449 8.26786C11.3826 8.20471 11.4325 8.14963 11.4915 8.10574C11.6115 8.19374 11.6755 8.29374 11.7155 8.47374C11.7635 8.38574 11.8235 8.34174 11.8875 8.33374V8.54974C11.8475 8.61374 11.7115 8.76174 11.7115 8.76174H11.2755Z" fill="white" stroke="black" stroke-width="0.16"/>
<path id="Vector_59" d="M11.2155 8.92973C11.2555 8.74173 11.2955 8.60173 11.4995 8.46173C11.7075 8.60173 11.7435 8.74173 11.7875 8.92973H11.2155Z" fill="white" stroke="black" stroke-width="0.16"/>
<path id="Vector_60" d="M11.1075 9.03374V8.76174C11.2035 8.80174 11.2875 8.85374 11.3195 8.91374C11.3515 8.76174 11.4195 8.69774 11.5035 8.60574C11.5875 8.69774 11.6435 8.76574 11.6795 8.91374C11.7115 8.85374 11.7955 8.79774 11.8875 8.76174V9.03374H11.1075Z" fill="white" stroke="black" stroke-width="0.16"/>
</g>
<path id="Vector_61" d="M3.5955 11.2377H13.4075V11.7377H3.5955V11.2377ZM3.3355 11.7377H13.6675V12.2377H3.3355V11.7377ZM4.1115 10.4857H12.8875V10.8097H4.1115V10.4857Z" fill="white" stroke="black" stroke-width="0.16"/>
<path id="Vector_62" d="M3.8555 10.8097H13.1515V11.2337H3.8555V10.8097ZM4.2635 10.2377H12.7435V10.4857H4.2635V10.2377Z" fill="white" stroke="black" stroke-width="0.16"/>
<path id="Vector_63" d="M5.1835 10.2377H5.8235V12.2377H5.1835V10.2377Z" fill="white" stroke="black" stroke-width="0.16"/>
<path id="Vector_64" d="M5.3275 10.2377H5.6835V12.2377H5.3235L5.3275 10.2377ZM8.1675 10.2377H8.8075V12.2377H8.1675V10.2377Z" fill="white" stroke="black" stroke-width="0.16"/>
<path id="Vector_65" d="M8.31551 10.2377H8.67551V12.2377H8.31551V10.2377ZM11.1755 10.2377H11.8155V12.2377H11.1755V10.2377Z" fill="white" stroke="black" stroke-width="0.16"/>
<path id="Vector_66" d="M11.3155 10.2377H11.6755V12.2377H11.3155V10.2377Z" fill="white" stroke="black" stroke-width="0.16"/>
<path id="Vector_67" d="M4.64751 10.0337H12.3675M5.31951 11.9857H5.68751M5.31951 11.7337H5.68751M5.31951 11.4857H5.68751M5.31951 11.2337H5.68751M5.31951 10.9857H5.68751M5.31951 10.7337H5.68751M5.31951 10.4857H5.68751M8.31951 11.9857H8.66351M8.31951 11.7337H8.66351M8.31951 11.4857H8.66351M8.31951 11.2337H8.66351M8.31951 10.9857H8.66351M8.31951 10.7337H8.66351M8.31951 10.4857H8.66351M11.3115 11.9857H11.6795M11.3115 11.7337H11.6795M11.3115 11.4857H11.6795M11.3115 11.2337H11.6795M11.3115 10.9857H11.6795M11.3115 10.7337H11.6795M11.3115 10.4857H11.6795" stroke="black" stroke-width="0.16"/>
</g>
</g>
</g>
<defs>
<clipPath id="clip0_514_541">
<rect x="0.5" y="0.86261" width="16" height="16" rx="8" fill="white"/>
</clipPath>
</defs>
</svg>
