<svg width="24" height="24" viewBox="0 0 24 24" fill="none" xmlns="http://www.w3.org/2000/svg">
<rect width="24" height="24" rx="12" fill="#4F4F4F"/>
<path fill-rule="evenodd" clip-rule="evenodd" d="M12.0003 5.39355C15.9301 5.39355 19.1158 7.94679 19.1158 11.0964C19.1158 12.1965 18.7268 13.2237 18.0535 14.0948C18.0202 14.1444 17.9766 14.1992 17.9218 14.2597L17.9176 14.2642C17.6876 14.5397 17.4286 14.7982 17.1438 15.0369C15.1761 16.8573 11.9373 19.0246 11.5099 18.6902C11.1382 18.3996 12.1219 16.978 10.987 16.7414C10.9079 16.7323 10.8289 16.7225 10.7506 16.7114L10.7491 16.7113V16.7112C7.41604 16.2373 4.88489 13.9038 4.88489 11.0964C4.88479 7.94679 8.07053 5.39355 12.0003 5.39355Z" fill="white"/>
<path fill-rule="evenodd" clip-rule="evenodd" d="M7.87211 12.9152H9.30719C9.51132 12.9152 9.67828 12.748 9.67828 12.5437V12.5127C9.67828 12.3084 9.51132 12.1413 9.30719 12.1413H8.27416V9.7889C8.27416 9.58459 8.1072 9.41748 7.90307 9.41748H7.87211C7.66798 9.41748 7.50102 9.58459 7.50102 9.7889V12.5437C7.50102 12.748 7.66798 12.9152 7.87211 12.9152ZM16.7646 11.1885V11.1575C16.7646 10.9532 16.5976 10.7861 16.3934 10.7861H15.3605V10.1979H16.3934C16.5976 10.1979 16.7646 10.0308 16.7646 9.82652V9.79553C16.7646 9.59122 16.5976 9.42411 16.3934 9.42411H14.9584C14.7542 9.42411 14.5873 9.59122 14.5873 9.79553V12.5503C14.5873 12.7546 14.7542 12.9218 14.9584 12.9218H16.3934C16.5976 12.9218 16.7646 12.7546 16.7646 12.5503V12.5193C16.7646 12.315 16.5976 12.1479 16.3934 12.1479H15.3605V11.5598H16.3934C16.5976 11.5599 16.7646 11.3927 16.7646 11.1885ZM14.0048 12.8045L14.0049 12.8043C14.0735 12.735 14.1121 12.6414 14.1122 12.5438V9.789C14.1122 9.58469 13.9452 9.41758 13.741 9.41758H13.7101C13.5059 9.41758 13.339 9.58469 13.339 9.789V11.4061L11.9977 9.6054C11.9336 9.49343 11.8129 9.41758 11.6754 9.41758H11.6445C11.4403 9.41758 11.2733 9.58469 11.2733 9.789V12.5438C11.2733 12.7481 11.4403 12.9153 11.6445 12.9153H11.6754C11.8796 12.9153 12.0465 12.7481 12.0465 12.5438V10.8964L13.3975 12.7433C13.4058 12.7563 13.4149 12.7687 13.4247 12.7805L13.4248 12.7806C13.4619 12.8313 13.5127 12.866 13.5692 12.8872C13.6127 12.9052 13.6603 12.9152 13.71 12.9152H13.741C13.8015 12.9152 13.861 12.9003 13.9144 12.8718C13.9515 12.8542 13.9827 12.8313 14.0048 12.8045ZM10.3489 12.9152H10.3799C10.584 12.9152 10.7509 12.748 10.7509 12.5437V9.78895C10.7509 9.58464 10.584 9.41753 10.3799 9.41753H10.3489C10.1448 9.41753 9.97775 9.58464 9.97775 9.78895V12.5437C9.97775 12.748 10.1448 12.9152 10.3489 12.9152Z" fill="#4F4F4F"/>
</svg>
