<svg width="117" height="30" viewBox="0 0 117 30" fill="none" xmlns="http://www.w3.org/2000/svg">
<path d="M4.39453 6.35156V19.0469C4.39453 20.349 3.74349 21 2.44141 21H0.488281V19.0469C1.13932 19.0469 1.46484 18.7214 1.46484 18.0703V6.35156H4.39453ZM7.32422 12.6992V6.35156H10.2539V19.0469C10.2539 20.349 9.60286 21 8.30078 21H6.34766V19.0469C6.9987 19.0469 7.32422 18.7214 7.32422 18.0703V14.6523H4.88281V12.6992H7.32422ZM13.1836 21V9.76953C13.1836 9.11849 12.6953 8.79297 11.7188 8.79297H10.7422V6.35156H11.7188C14.6484 6.35156 16.1133 7.32812 16.1133 9.28125V21H13.1836ZM19.043 15.1406H21.9727V18.1387L23.4375 16.7129L24.9023 18.1387V15.375L24.1699 15.1895C20.752 14.1608 19.043 12.8424 19.043 11.2344V9.28125C19.043 7.32812 20.5078 6.35156 23.4375 6.35156C26.3672 6.35156 27.832 7.32812 27.832 9.28125V11.2344C27.832 11.8854 27.3438 12.2109 26.3672 12.2109H24.4141V10.2578H24.9023V9.28125C24.9023 8.63021 24.4141 8.30469 23.4375 8.30469C22.4609 8.30469 21.9727 8.63021 21.9727 9.28125V11.2344C21.9727 12.1263 22.9492 12.8392 24.9023 13.373L27.832 14.1738V20.0234C27.832 20.6745 27.3535 21 26.3965 21H24.9023L23.4375 19.5742L21.9727 21H20.4785C19.5215 21 19.043 20.6745 19.043 20.0234V15.1406Z" fill="white"/>
<path d="M41.5 21.75C41.09 21.75 40.75 21.41 40.75 21V10C40.75 5.59 42.09 4.25 46.5 4.25H53.5C57.91 4.25 59.25 5.59 59.25 10V20C59.25 20.16 59.25 20.31 59.24 20.47C59.21 20.88 58.84 21.2 58.44 21.17C58.03 21.14 57.71 20.78 57.74 20.37C57.75 20.25 57.75 20.12 57.75 20V10C57.75 6.43 57.08 5.75 53.5 5.75H46.5C42.92 5.75 42.25 6.43 42.25 10V21C42.25 21.41 41.91 21.75 41.5 21.75Z" fill="#59BA47"/>
<path d="M55 25.75H45C42.66 25.75 40.75 23.84 40.75 21.5V20.85C40.75 18.86 42.37 17.25 44.35 17.25H58.5C58.91 17.25 59.25 17.59 59.25 18V21.5C59.25 23.84 57.34 25.75 55 25.75ZM44.35 18.75C43.19 18.75 42.25 19.69 42.25 20.85V21.5C42.25 23.02 43.48 24.25 45 24.25H55C56.52 24.25 57.75 23.02 57.75 21.5V18.75H44.35Z" fill="#59BA47"/>
<path d="M54 10.75H46C45.59 10.75 45.25 10.41 45.25 10C45.25 9.59 45.59 9.25 46 9.25H54C54.41 9.25 54.75 9.59 54.75 10C54.75 10.41 54.41 10.75 54 10.75Z" fill="#59BA47"/>
<path d="M51 14.25H46C45.59 14.25 45.25 13.91 45.25 13.5C45.25 13.09 45.59 12.75 46 12.75H51C51.41 12.75 51.75 13.09 51.75 13.5C51.75 13.91 51.41 14.25 51 14.25Z" fill="#59BA47"/>
<path d="M74.3945 6.35156V19.0469C74.3945 20.349 73.7435 21 72.4414 21H70.4883V19.0469C71.1393 19.0469 71.4648 18.7214 71.4648 18.0703V6.35156H74.3945ZM77.3242 12.6992V6.35156H80.2539V19.0469C80.2539 20.349 79.6029 21 78.3008 21H76.3477V19.0469C76.9987 19.0469 77.3242 18.7214 77.3242 18.0703V14.6523H74.8828V12.6992H77.3242ZM83.1836 8.79297V6.35156H91.9727V8.79297H83.1836ZM83.1836 13.1875C83.1836 11.2344 84.6484 10.2578 87.5781 10.2578C90.5078 10.2578 91.9727 11.2344 91.9727 13.1875V21H89.043V13.1875C89.043 12.5365 88.5547 12.2109 87.5781 12.2109C86.6016 12.2109 86.1133 12.5365 86.1133 13.1875V18.0703C87.0898 18.0703 87.5781 18.3958 87.5781 19.0469V20.0234C87.5781 20.6745 87.0898 21 86.1133 21H84.6484C83.6719 21 83.1836 20.6745 83.1836 20.0234V13.1875ZM92.4609 27.3477H91.3477C90.1432 27.3477 88.9421 26.3711 87.7441 24.418C87.3405 23.7669 86.888 23.4414 86.3867 23.4414C85.8789 23.4414 85.625 23.7669 85.625 24.418V24.9062H86.6016V26.8594H84.7559C83.7077 26.8594 83.1836 26.2083 83.1836 24.9062V23.9297C83.1836 22.6276 84.0332 21.9766 85.7324 21.9766H86.4941C87.4577 21.9766 88.3464 22.3835 89.1602 23.1973C89.974 24.0111 90.7031 24.418 91.3477 24.418H92.4609V27.3477ZM94.4141 6.35156H98.8086V8.79297H96.5625V9.44727L98.8086 10.2578V12.2109C98.1576 12.2109 97.832 12.5039 97.832 13.0898V18.0703C97.832 18.7214 98.3203 19.0469 99.2969 19.0469C100.273 19.0469 100.762 18.7214 100.762 18.0703V6.35156H103.691V18.0703C103.691 20.0234 102.227 21 99.2969 21C96.3672 21 94.9023 20.0234 94.9023 18.0703V12.6992C94.9023 12.1784 95.2279 11.7552 95.8789 11.4297L94.4141 11.0684V6.35156ZM106.621 9.28125C106.621 7.32812 108.086 6.35156 111.016 6.35156C113.945 6.35156 115.41 7.32812 115.41 9.28125V10.7461C115.41 11.3971 114.922 11.7227 113.945 11.7227H111.992V9.76953H112.48V9.28125C112.48 8.63021 111.992 8.30469 111.016 8.30469C110.039 8.30469 109.551 8.63021 109.551 9.28125V11.2344C109.551 12.0677 110.254 12.6471 111.66 12.9727L112.998 13.2852C113.128 13.1354 113.285 13.002 113.467 12.8848C113.649 12.7611 113.841 12.6992 114.043 12.6992H114.434C115.085 12.6992 115.41 12.9727 115.41 13.5195V14.7109C115.41 15.1797 115.075 15.5215 114.404 15.7363L115.41 16.2148V18.0703C115.41 20.0234 113.945 21 111.016 21C108.086 21 106.621 20.0234 106.621 18.0703V14.9453L109.551 15.6289V18.0703C109.551 18.7214 110.039 19.0469 111.016 19.0469C111.992 19.0469 112.48 18.7214 112.48 18.0703V15.2871L109.561 14.5547C107.601 14.0469 106.621 12.9401 106.621 11.2344V9.28125Z" fill="white"/>
</svg>
